<?xml version="1.0" encoding="utf-8"?>
<!-- Generator: Adobe Illustrator 23.0.0, SVG Export Plug-In . SVG Version: 6.00 Build 0)  -->
<svg version="1.1" id="Layer_1" xmlns="http://www.w3.org/2000/svg" xmlns:xlink="http://www.w3.org/1999/xlink" x="0px" y="0px"
	 viewBox="0 0 841.89 595.28" style="enable-background:new 0 0 841.89 595.28;" xml:space="preserve">
<style type="text/css">
	.st0{fill:none;}
	.st1{fill:#FFFFFF;}
	.st2{font-family:'Roboto-Regular';}
	.st3{font-size:102px;}
	.st4{fill:#09070A;}
</style>
<rect x="147.36" y="342.36" class="st0" width="547.17" height="126.46"/>
<text transform="matrix(1 0 0 1 147.3614 418.8629)" class="st1 st2 st3">SAUL BASS</text>
<g>
	<g>
		<path class="st4" d="M486.34,201.5c-2.07-0.31-4.21-1.11-6.19-0.83c-4.14,0.6-8.36,1.36-12.27,2.8
			c-16.24,5.98-27.1,17.55-34.31,33.1c-7.08,15.29-10.64,31.39-12.64,47.98c-1.59,13.15,0.3,10.81-11.4,19.25
			c-3.85,2.77-8.13,5.02-12.41,7.08c-8.94,4.3-18.19,3.94-27.35,0.78c-5.91-2.04-8.85-6.3-9.6-12.76
			c-2.27-19.51,4.87-35.74,16.41-50.74c15.96-20.76,35.42-37.67,57.98-50.61c21.37-12.25,44.6-16.11,68.89-10.05
			c18.04,4.5,27.76,24.22,20.78,41.34c-3.42,8.38-9.42,14.87-15.28,21.41c-12.57,14.02-25.25,27.95-38.11,41.7
			c-9.98,10.67-18.48,22.35-25.4,35.19c-5.07,9.41-11.04,18.13-17.93,26.36c-6.17,7.37-11.34,15.57-14.31,24.94
			c-2.65,8.34-7.24,15.63-12.78,22.34c-1.23,1.49-2.26,3.17-3.66,4.47c-1.85,1.73-3.75,3.62-5.99,4.65c-4.38,2-7.85-0.6-7.76-5.56
			c-2.41-0.01-4.74-0.25-4.73-3.2c-1.8-0.88-4.25-1.27-4.86-2.53c-1.51-3.14-2.18-6.69-3.16-10.08c-0.16-0.56-0.02-1.27-0.31-1.73
			c-2.48-3.84-2.26-5.36,1.2-8.32c5.59-4.77,11.35-9.36,16.68-14.42c6.12-5.81,12.15-11.77,17.61-18.18
			c3.02-3.55,5.25-7.97,7.06-12.32c5.3-12.82,7.49-26.41,9.55-40.07c2.56-16.98,5.69-33.91,11.58-50.11
			c7.04-19.33,21.05-31.65,40.4-38.06c2.32-0.77,4.88-0.81,7.31-1.27c1.66-0.31,3.3-0.76,4.95-1.15
			C486.3,202.45,486.32,201.97,486.34,201.5z"/>
		<path class="st4" d="M528.75,294.12c0.22-3.8-3.74-9.09-8.54-10.66c-9.66-3.16-19.5-4.32-29.57-1.93
			c-1.49,0.35-3.1,0.18-4.66,0.26c0.73-1.5,1.16-3.27,2.24-4.44c5.28-5.75,10.74-11.33,16.12-16.99c1.88-1.98,4.06-3.02,6.87-2.76
			c3.11,0.28,6.25,0.21,9.34,0.57c16.36,1.88,31.3,17.43,31.34,33.3c0.05,19.02-6.7,34.67-24.29,44.09
			c-5.25,2.81-10.63,5.4-16.1,7.77c-2.12,0.92-4.64,1.28-6.97,1.27c-16.81-0.08-33.62-0.31-50.43-0.52
			c-1.56-0.02-3.12-0.19-4.67-0.39c-4.19-0.53-5.85-2.47-5.36-6.7c0.23-1.97,0.75-4.02,1.62-5.8c7.58-15.59,17.14-29.67,30.69-40.81
			c5.43-4.46,11.76-5.41,18.31-5.6c9.86-0.28,19.4,1.37,28.29,5.87C524.91,291.62,526.7,292.87,528.75,294.12z"/>
		<path class="st4" d="M393.78,340.91c-5.86,0.94-11.97,1.11-17.52,2.96c-15.75,5.26-31.96,7.14-48.37,8.6
			c-7.69,0.68-15.23,3.12-22.86,4.65c-3.04,0.61-6.12,1.07-9.21,1.31c-2.32,0.18-4.5-0.65-5.37-3.02c-0.8-2.17-0.58-4.27,1.34-6.04
			c0.62-0.57,0.88-1.75,0.94-2.68c0.21-3.46,1.36-6.42,3.97-8.78c0.74-0.67,1.42-1.45,2-2.27c5.88-8.13,14.18-9.78,23.46-8.82
			c2.83,0.29,5.67,1,8.47,0.85c2.03-0.11,4.46-0.81,5.89-2.14c3.28-3.04,6.23-6.48,8.98-10.02c4.04-5.2,13.87-6.4,18.88-2.05
			c10.3,8.94,11.15,9.19,23.75,3.83c6.07-2.58,11.89-5.72,17.86-8.53c2.48-1.17,4.99-2.32,7.6-3.12c1.93-0.59,3.38,0.3,2.92,2.59
			c-1.12,5.55-2.18,11.13-3.64,16.59c-0.92,3.44-2.48,6.7-3.8,10.03c-2.12,5.36-4.68,7.06-10.51,7.02c-1.56-0.01-3.12,0-4.68,0
			C393.86,341.55,393.82,341.23,393.78,340.91z"/>
	</g>
</g>
</svg>
